#!OML:ASF E:\motion texture\Top Level 1\Subject 1\Session 1\male.ASF
:FULLY-SPECIFIED
:DEGREES
344
root -5.66277 18.0595 -4.81926 18.7724 -79.5174 -12.2659
lowerback -0.636999 -0.627673 8.50573
upperback -3.64442 -0.769169 5.00483
thorax -3.47337 -0.634329 0.459671
lowerneck -11.3594 -12.3532 -12.6375
upperneck 5.13783 -15.2884 7.46942
head 4.8819 -7.41593 2.94358
rclavicle 1.68222e-014 -5.24792e-014
rhumerus 30.4231 -14.5267 -61.2247
rradius 52.7964
rwrist -16.1125
rhand -15.4232 -37.2112
rfingers 7.12502
rthumb 10.7566 -66.9158
lclavicle 1.68222e-014 -5.24792e-014
lhumerus -29.9962 -11.5545 84.2098
lradius 63.7338
lwrist -14.632
lhand -11.9301 16.0091
lfingers 7.12502
lthumb 14.1243 45.509
rfemur -30.5093 -3.08843 15.9827
rtibia 26.7987
rfoot -0.590886 -14.7577
rtoes -4.2469
lfemur -5.3453 -6.8709 -25.8558
ltibia 19.5911
lfoot -8.02433 -12.8396
ltoes 11.5198
345
root -5.81598 18.0625 -4.82904 18.4669 -78.9007 -11.9051
lowerback -0.849829 -0.695568 8.30426
upperback -3.68922 -0.882143 4.91634
thorax -3.40245 -0.68279 0.477717
lowerneck -11.224 -12.4933 -12.7407
upperneck 5.20065 -15.5133 7.76784
head 4.93522 -7.51537 3.02504
rclavicle -3.47873e-015 4.6118e-014
rhumerus 29.6873 -14.0354 -60.0498
rradius 54.015
rwrist -15.0896
rhand -15.7905 -36.8355
rfingers 7.12502
rthumb 10.4023 -66.5582
lclavicle -3.47873e-015 4.6118e-014
lhumerus -30.2225 -11.4117 84.6269
lradius 63.2461
lwrist -14.6834
lhand -12.0129 15.9684
lfingers 7.12502
lthumb 14.0446 45.4738
rfemur -30.3894 -2.86479 16.0593
rtibia 25.3545
rfoot -0.461844 -14.9703
rtoes -4.34918
lfemur -4.73414 -6.98743 -25.62
ltibia 19.3477
lfoot -7.94853 -13.2443
ltoes 11.4675
346
root -5.97033 18.0647 -4.83833 18.238 -78.3097 -11.627
lowerback -1.05562 -0.759966 8.10592
upperback -3.72772 -0.98927 4.82897
thorax -3.32833 -0.728395 0.494678
lowerneck -11.0817 -12.6284 -12.8495
upperneck 5.26127 -15.7323 8.06302
head 4.98728 -7.61256 3.10714
rclavicle -5.93869e-015 -4.77083e-014
rhumerus 28.8582 -13.5487 -58.9442
rradius 55.3036
rwrist -14.0865
rhand -16.1353 -36.4456
rfingers 7.12502
rthumb 10.0697 -66.1847
lclavicle -5.93869e-015 -4.77083e-014
lhumerus -30.4493 -11.1948 85.0283
lradius 62.6679
lwrist -14.7259
lhand -12.1115 15.9577
lfingers 7.12502
lthumb 13.9496 45.4697
rfemur -30.2487 -2.61656 16.1517
rtibia 23.992
rfoot -0.326798 -15.1947
rtoes -4.32429
lfemur -4.14213 -7.09713 -25.3709
ltibia 19.144
lfoot -7.85823 -13.6467
ltoes 11.3827
347
root -6.12579 18.066 -4.84706 18.0794 -77.7474 -11.4244
lowerback -1.25533 -0.819625 7.91251
upperback -3.7598 -1.08905 4.74303
thorax -3.25037 -0.770446 0.509894
lowerneck -10.9362 -12.7586 -12.9617
upperneck 5.32153 -15.9452 8.35143
head 5.03871 -7.70743 3.18834
rclavicle -1.33434e-014 -1.11319e-014
rhumerus 27.9446 -13.0677 -57.92
rradius 56.656
rwrist -13.1038
rhand -16.476 -36.0471
rfingers 7.12502
rthumb 9.74091 -65.8018
lclavicle -1.33434e-014 -1.11319e-014
lhumerus -30.6778 -10.9048 85.4108
lradius 62.0023
lwrist -14.7579
lhand -12.2255 15.9708
lfingers 7.12502
lthumb 13.8397 45.4904
rfemur -30.0921 -2.34886 16.2636
rtibia 22.7174
rfoot -0.185783 -15.4297
rtoes -4.15784
lfemur -3.57225 -7.19942 -25.1081
ltibia 18.9822
lfoot -7.74736 -14.0478
ltoes 11.2693
348
root -6.28227 18.0667 -4.85515 17.9743 -77.2136 -11.2795
lowerback -1.44778 -0.874919 7.72399
upperback -3.78831 -1.18169 4.65817
thorax -3.1723 -0.809207 0.523184
lowerneck -10.7831 -12.8826 -13.0783
upperneck 5.38183 -16.1505 8.63317
head 5.08884 -7.79944 3.26925
rclavicle 1.22501e-014 -2.8625e-014
rhumerus 26.9406 -12.5783 -56.9694
rradius 58.0619
rwrist -12.1597
rhand -16.8206 -35.6339
rfingers 7.12502
rthumb 9.40841 -65.4039
lclavicle 1.22501e-014 -2.8625e-014
lhumerus -30.9103 -10.5411 85.7719
lradius 61.249
lwrist -14.7794
lhand -12.3605 16.0093
lfingers 7.12502
lthumb 13.7096 45.5377
rfemur -29.9229 -2.07171 16.3971
rtibia 21.5341
rfoot -0.0392285 -15.6681
rtoes -3.85412
lfemur -3.02843 -7.29571 -24.834
ltibia 18.866
lfoot -7.61181 -14.4489
ltoes 11.135
349
root -6.43974 18.0669 -4.86248 17.9171 -76.7093 -11.1874
lowerback -1.63443 -0.925816 7.54134
upperback -3.81142 -1.2675 4.57562
thorax -3.09143 -0.844737 0.53527
lowerneck -10.6299 -13.0007 -13.1979
upperneck 5.44476 -16.3478 8.90431
head 5.13904 -7.88829 3.3481
rclavicle -2.70844e-015 4.77083e-015
rhumerus 25.8594 -12.0827 -56.1059
rradius 59.5138
rwrist -11.2461
rhand -17.1567 -35.2059
rfingers 7.12502
rthumb 9.08412 -64.9903
lclavicle -2.70844e-015 4.77083e-015
lhumerus -31.142 -10.0991 86.1081
lradius 60.4068
lwrist -14.7919
lhand -12.5114 16.0719
lfingers 7.12502
lthumb 13.5642 45.6101
rfemur -29.7414 -1.79253 16.5557
rtibia 20.4432
rfoot 0.108485 -15.9019
rtoes -3.41461
lfemur -2.51234 -7.38335 -24.5483
ltibia 18.7983
lfoot -7.44485 -14.852
ltoes 10.9903
350
root -6.59816 18.0667 -4.86909 17.8981 -76.2325 -11.138
lowerback -1.81456 -0.973087 7.36432
upperback -3.83143 -1.34732 4.49513
thorax -3.01068 -0.877567 0.546139
lowerneck -10.4719 -13.1122 -13.3199
upperneck 5.51013 -16.5365 9.16444
head 5.18833 -7.97392 3.42508
rclavicle -8.10048e-015 1.59028e-014
rhumerus 24.7017 -11.5766 -55.3332
rradius 61.0024
rwrist -10.3656
rhand -17.4811 -34.7681
rfingers 7.12502
rthumb 8.77106 -64.5659
lclavicle -8.10048e-015 1.59028e-014
lhumerus -31.3753 -9.5787 86.4156
lradius 59.477
lwrist -14.7973
lhand -12.6785 16.1633
lfingers 7.12502
lthumb 13.4031 45.7121
rfemur -29.5474 -1.52012 16.7417
rtibia 19.4438
rfoot 0.258887 -16.1252
rtoes -2.85188
lfemur -2.02796 -7.46023 -24.2504
ltibia 18.7831
lfoot -7.24059 -15.2599
ltoes 10.8362
351
root -6.75755 18.0662 -4.87481 17.9203 -75.7851 -11.1356
lowerback -1.98839 -1.01581 7.19661
upperback -3.8481 -1.42004 4.41707
thorax -2.92978 -0.90724 0.554192
lowerneck -10.3138 -13.2169 -13.4431
upperneck 5.58144 -16.7159 9.41097
head 5.23801 -8.05588 3.49901
rclavicle -4.34841e-015 5.88403e-014
rhumerus 23.4719 -11.0563 -54.6545
rradius 62.517
rwrist -9.51771
rhand -17.7586 -34.3123
rfingers 7.12502
rthumb 8.50329 -64.1211
lclavicle -4.34841e-015 5.88403e-014
lhumerus -31.6103 -8.97978 86.6908
lradius 58.463
lwrist -14.7952
lhand -12.8571 16.2894
lfingers 7.12502
lthumb 13.231 45.8495
rfemur -29.3407 -1.26141 16.9597
rtibia 18.5356
rfoot 0.411686 -16.3294
rtoes -2.16106
lfemur -1.57449 -7.52152 -23.9394
ltibia 18.8194
lfoot -6.99178 -15.6737
ltoes 10.6767
352
root -6.9178 18.0656 -4.87965 17.9757 -75.3653 -11.1719
lowerback -2.1565 -1.05497 7.03707
upperback -3.86129 -1.48711 4.34236
thorax -2.84829 -0.934406 0.561035
lowerneck -10.157 -13.3152 -13.566
upperneck 5.65825 -16.8861 9.64136
head 5.28774 -8.13424 3.5689
rclavicle 4.67144e-015 1.59028e-014
rhumerus 22.1761 -10.5187 -54.0723
rradius 64.0473
rwrist -8.70498
rhand -18.0406 -33.8482
rfingers 7.12502
rthumb 8.23114 -63.6679
lclavicle 4.67144e-015 1.59028e-014
lhumerus -31.8441 -8.29839 86.9296
lradius 57.3631
lwrist -14.7936
lhand -13.0487 16.4345
lfingers 7.12502
lthumb 13.0462 46.0065
rfemur -29.1219 -1.02235 17.2102
rtibia 17.7177
rfoot 0.567055 -16.5089
rtoes -1.35156
lfemur -1.15627 -7.56679 -23.6157
ltibia 18.9114
lfoot -6.69234 -16.0948
ltoes 10.5129
353
root -7.07882 18.065 -4.88359 18.0667 -74.9718 -11.2488
lowerback -2.31777 -1.09072 6.88877
upperback -3.87229 -1.54863 4.2709
thorax -2.76835 -0.959268 0.564987
lowerneck -10.0036 -13.4068 -13.6894
upperneck 5.74352 -17.0467 9.85676
head 5.33878 -8.20868 3.63509
rclavicle -4.84786e-014 3.33958e-014
rhumerus 20.8202 -9.96354 -53.5926
rradius 65.5799
rwrist -7.92158
rhand -18.3233 -33.3736
rfingers 7.12502
rthumb 7.95829 -63.2037
lclavicle -4.84786e-014 3.33958e-014
lhumerus -32.0797 -7.53604 87.1269
lradius 56.184
lwrist -14.7913
lhand -13.2458 16.6072
lfingers 7.12502
lthumb 12.8563 46.1912
rfemur -28.8917 -0.807599 17.4959
rtibia 16.989
rfoot 0.725425 -16.6575
rtoes -0.434508
lfemur -0.775752 -7.59597 -23.2777
ltibia 19.0605
lfoot -6.33614 -16.5241
ltoes 10.3429
354
root -7.24053 18.0644 -4.88659 18.1934 -74.6035 -11.3666
lowerback -2.47475 -1.12316 6.7521
upperback -3.88036 -1.60515 4.20382
thorax -2.68778 -0.982027 0.566914
lowerneck -9.85307 -13.4919 -13.8131
upperneck 5.835 -17.1978 10.0576
head 5.39034 -8.2793 3.69775
rclavicle -3.02898e-014 6.20208e-014
rhumerus 19.4066 -9.38853 -53.2137
rradius 67.105
rwrist -7.16424
rhand -18.5849 -32.8894
rfingers 7.12502
rthumb 7.70582 -62.729
lclavicle -3.02898e-014 6.20208e-014
lhumerus -32.3147 -6.69011 87.2788
lradius 54.927
lwrist -14.7914
lhand -13.4505 16.8069
lfingers 7.12502
lthumb 12.6589 46.4032
rfemur -28.6504 -0.621431 17.8185
rtibia 16.3485
rfoot 0.88785 -16.7693
rtoes 0.573255
lfemur -0.435352 -7.60876 -22.9248
ltibia 19.269
lfoot -5.91721 -16.9607
ltoes 10.166
355
root -7.40287 18.0639 -4.88865 18.3552 -74.2593 -11.525
lowerback -2.62646 -1.15224 6.62857
upperback -3.88609 -1.65655 4.141
thorax -2.60783 -1.00269 0.565955
lowerneck -9.70606 -13.5712 -13.9353
upperneck 5.93385 -17.3403 10.2417
head 5.4425 -8.34644 3.75588
rclavicle -4.03781e-014 -1.11319e-014
rhumerus 17.9385 -8.79086 -52.9361
rradius 68.6097
rwrist -6.44016
rhand -18.8364 -32.3904
rfingers 7.12502
rthumb 7.46306 -62.2388
lclavicle -4.03781e-014 -1.11319e-014
lhumerus -32.5506 -5.76163 87.3802
lradius 53.597
lwrist -14.7996
lhand -13.6587 17.0349
lfingers 7.12502
lthumb 12.4582 46.6436
rfemur -28.3974 -0.464498 18.1774
rtibia 15.7927
rfoot 1.05295 -16.841
rtoes 1.66503
lfemur -0.136191 -7.60402 -22.5562
ltibia 19.5376
lfoot -5.43257 -17.4026
ltoes 9.97784
